# xmcd CD database file
#
# Track frame offsets:
#	150
#	20836
#	46453
#	65046
#
# Disc length: 1181 seconds
#
# Revision: 0
# Processed by: cddbd v1.5.1PL0 Copyright (c) Steve Scherf et al.
# Submitted via: CDex 1.51
#
DISCID=37049b04
DTITLE=日本國民 - Patriotism Volume1
DYEAR=1900
DGENRE=未分類 (日本)
TTITLE0=Fragment'94
TTITLE1=bess time goes by
TTITLE2=Dandelion
TTITLE3=Atrach=Nacha
EXTD=
EXTT0=
EXTT1=
EXTT2=
EXTT3=
PLAYORDER=
